<?xml version="1.0" standalone="no"?>
<!DOCTYPE svg PUBLIC "-//W3C//DTD SVG 20010904//EN"
 "http://www.w3.org/TR/2001/REC-SVG-20010904/DTD/svg10.dtd">
<svg version="1.0" xmlns="http://www.w3.org/2000/svg"
 width="2048.000000pt" height="2048.000000pt" viewBox="0 0 2048.000000 2048.000000"
 preserveAspectRatio="xMidYMid meet">
<metadata>
Created by potrace 1.14, written by Peter Selinger 2001-2017
</metadata>
<g transform="translate(0.000000,2048.000000) scale(0.100000,-0.100000)"
fill="#000000" stroke="none">
<path d="M8132 18689 c-176 -16 -327 -73 -404 -152 -50 -51 -95 -144 -103
-212 -5 -44 -3 -42 15 24 21 79 33 101 86 167 89 110 315 174 577 161 179 -9
360 -61 642 -184 94 -41 240 -101 325 -133 194 -73 399 -154 555 -218 257
-107 886 -390 1094 -492 56 -27 103 -50 106 -50 17 0 926 -454 990 -495 82
-52 106 -61 65 -25 -67 60 -1074 553 -1720 842 -428 192 -601 265 -935 394
-148 57 -349 138 -445 179 -241 103 -293 121 -450 160 -149 36 -266 46 -398
34z"/>
<path d="M7612 18240 c0 -19 2 -27 5 -17 2 9 2 25 0 35 -3 9 -5 1 -5 -18z"/>
<path d="M12905 18219 c-183 -26 -293 -116 -397 -324 -46 -91 -209 -493 -300
-740 -33 -91 -43 -105 -70 -105 -10 0 -16 -4 -13 -10 3 -5 15 -10 25 -10 19 0
49 46 65 100 4 14 18 52 30 85 13 33 40 103 60 155 253 656 304 740 490 809
178 67 612 48 744 -31 60 -36 134 -99 179 -153 85 -102 378 -540 464 -695 53
-94 318 -632 318 -644 0 -2 32 -62 71 -132 39 -71 91 -169 116 -219 25 -49 60
-111 78 -136 50 -71 112 -189 125 -239 20 -79 20 -80 47 -80 14 0 82 22 152
50 69 27 160 58 201 68 159 41 494 36 629 -9 156 -52 208 -116 261 -322 41
-158 65 -286 90 -482 20 -156 30 -208 30 -159 0 49 -43 361 -65 469 -64 316
-113 413 -243 479 -110 55 -149 61 -407 61 -270 0 -264 1 -487 -86 -72 -29
-139 -49 -154 -47 -24 3 -29 10 -44 66 -11 39 -47 112 -97 195 -44 72 -104
177 -133 232 -29 55 -72 135 -97 177 -24 42 -81 157 -127 255 -213 458 -319
648 -490 883 -34 47 -93 132 -132 190 -189 287 -337 362 -709 359 -82 -1 -177
-5 -210 -10z"/>
<path d="M7603 18115 c0 -38 2 -53 4 -32 2 20 2 52 0 70 -2 17 -4 1 -4 -38z"/>
<path d="M8153 18134 c-25 -39 -29 -181 -8 -301 9 -54 34 -168 56 -253 21 -85
68 -275 104 -421 35 -146 76 -295 89 -331 14 -36 30 -103 36 -149 6 -46 24
-138 40 -204 38 -161 45 -224 26 -250 -12 -17 -29 -21 -118 -25 -190 -9 -1025
16 -1303 40 -212 18 -555 23 -661 11 -75 -9 -146 -9 -275 -1 -188 11 -826 37
-1164 47 -243 7 -315 -2 -342 -44 -14 -22 -15 -31 -4 -72 29 -110 134 -285
274 -459 41 -52 105 -137 141 -190 37 -54 118 -169 181 -257 63 -88 144 -205
181 -260 75 -112 285 -386 349 -455 61 -66 115 -145 115 -168 0 -20 -45 -43
-130 -66 -63 -18 -311 -96 -595 -188 -338 -109 -422 -136 -625 -198 -122 -38
-256 -80 -803 -254 -198 -64 -218 -77 -201 -139 11 -37 82 -88 264 -187 211
-115 403 -233 615 -375 116 -78 298 -197 405 -265 360 -226 400 -255 400 -294
0 -26 -36 -83 -112 -176 -28 -36 -106 -139 -172 -230 -66 -91 -146 -197 -177
-237 -31 -40 -101 -136 -155 -215 -54 -79 -157 -228 -229 -333 -73 -104 -140
-205 -149 -223 -21 -41 -49 -197 -42 -228 5 -17 17 -25 44 -31 20 -4 246 -7
501 -6 l463 2 -7 -46 c-12 -83 -44 -168 -136 -370 -171 -372 -249 -576 -249
-649 0 -20 5 -24 33 -24 17 0 56 9 85 20 29 11 133 43 230 71 97 28 209 61
247 74 39 13 93 27 121 30 l51 7 7 -86 c4 -47 5 -100 2 -118 -3 -18 -10 -100
-16 -182 -6 -81 -21 -213 -35 -293 -14 -79 -25 -175 -25 -214 0 -69 0 -69 28
-69 55 0 106 44 282 244 114 129 213 218 234 210 20 -8 51 -80 91 -218 57
-196 172 -522 206 -587 36 -67 36 -87 -5 -219 -44 -141 -59 -279 -53 -490 8
-262 49 -427 158 -640 143 -276 325 -473 535 -579 173 -87 492 -161 694 -161
47 0 166 12 264 26 168 25 183 25 230 11 78 -23 248 -90 376 -147 172 -77 486
-167 753 -215 63 -12 86 -20 76 -28 -12 -10 -408 -111 -503 -128 -61 -12 -121
-23 -133 -25 -29 -5 -29 -25 -8 -289 33 -413 36 -427 97 -440 50 -11 66 -25
103 -86 61 -98 255 -549 255 -589 0 -10 -13 -47 -30 -82 -16 -34 -30 -72 -30
-84 0 -29 39 -84 135 -189 95 -104 105 -120 105 -171 0 -46 -58 -257 -151
-549 -121 -379 -136 -426 -188 -600 -67 -226 -75 -266 -61 -309 13 -40 28 -46
128 -46 61 0 79 -4 115 -27 52 -33 135 -42 188 -19 52 22 119 92 249 259 70
89 124 150 138 153 18 5 34 -6 85 -59 47 -49 72 -68 104 -77 53 -13 213 -4
266 16 60 23 84 18 145 -30 105 -83 162 -93 265 -50 34 15 96 38 137 51 46 16
100 43 140 73 54 39 276 166 260 148 -3 -3 -30 -24 -60 -47 -67 -50 -136 -131
-162 -189 -26 -58 -36 -184 -17 -219 13 -25 97 -89 162 -125 22 -12 54 -18
102 -18 89 0 144 25 245 113 41 36 113 93 160 126 47 32 103 78 125 101 58 61
176 154 216 170 19 7 46 22 62 32 32 23 37 11 6 -15 -16 -14 -19 -25 -14 -45
23 -97 190 -234 302 -249 34 -4 48 1 108 42 88 59 104 74 232 213 57 63 115
136 128 163 14 27 29 49 34 49 10 0 13 -8 31 -88 8 -34 34 -86 73 -145 33 -51
68 -117 77 -147 32 -104 64 -146 135 -176 33 -14 70 -17 205 -15 183 2 214 5
280 33 53 23 88 54 138 123 50 71 61 79 84 58 10 -9 18 -21 18 -28 0 -7 18
-40 40 -74 32 -49 50 -66 86 -81 55 -24 116 -25 175 -5 36 13 53 14 91 5 47
-12 47 -12 126 39 75 49 82 57 128 141 26 50 52 90 56 90 4 0 27 -14 50 -30
55 -39 115 -50 125 -25 16 44 -48 294 -193 752 -35 111 -76 252 -90 315 -21
96 -80 282 -124 393 -22 58 -90 330 -90 364 0 27 23 71 104 195 57 89 108 176
115 195 15 47 14 145 -4 211 -23 85 -19 114 21 178 49 77 101 140 201 243 46
48 89 102 97 120 8 19 21 97 30 174 9 77 23 178 30 225 21 128 28 242 17 273
-6 14 -23 33 -40 41 -39 21 -188 46 -270 46 -73 0 -176 15 -218 31 -28 11 -28
11 27 33 98 41 256 129 538 302 185 114 352 253 436 364 57 74 194 294 218
350 24 56 53 148 67 218 12 60 37 111 91 191 48 71 60 95 104 209 41 107 90
305 107 437 22 169 -6 464 -60 625 -34 99 -104 245 -157 325 -41 61 -48 101
-64 350 -6 94 -18 231 -26 305 -11 94 -18 284 -22 630 -6 445 -9 498 -24 527
-24 44 -22 74 8 118 48 71 341 391 441 480 129 116 387 329 483 397 134 96
394 304 433 347 46 51 47 75 5 97 -46 24 -131 28 -233 10 -202 -34 -264 -44
-355 -56 -94 -12 -136 -20 -403 -80 -96 -21 -143 -28 -155 -21 -16 9 -17 19
-10 108 4 54 14 134 23 178 44 241 71 1026 45 1296 -52 532 -84 794 -120 989
-16 85 -32 173 -35 195 -15 97 -16 98 -116 69 -46 -14 -69 -31 -159 -118 -107
-104 -280 -258 -425 -378 -44 -37 -102 -89 -130 -117 -27 -28 -57 -51 -67 -51
-22 0 -64 72 -124 215 -26 61 -60 142 -76 180 -17 39 -142 295 -278 570 -136
275 -280 570 -320 655 -156 338 -304 594 -506 875 -71 99 -155 218 -186 265
-61 92 -100 134 -136 145 -19 5 -31 -1 -62 -33 -21 -22 -46 -62 -55 -89 -10
-26 -46 -122 -80 -213 -65 -171 -151 -429 -205 -610 -17 -58 -55 -170 -84
-250 -30 -80 -73 -199 -96 -265 -24 -66 -49 -127 -57 -135 -11 -12 -20 -11
-70 14 -31 15 -131 78 -222 139 -168 113 -199 131 -486 284 -88 47 -207 113
-265 147 -58 34 -148 81 -200 105 -52 25 -201 97 -330 162 -129 64 -338 164
-465 222 -126 58 -351 162 -500 232 -368 173 -735 328 -1005 426 -74 26 -238
96 -365 154 -263 122 -323 145 -376 145 -31 0 -42 -5 -56 -26z m371 -239 c106
-40 233 -89 282 -110 49 -20 170 -69 269 -110 361 -147 626 -264 955 -422 113
-54 232 -110 265 -125 285 -126 962 -461 1340 -661 175 -93 555 -326 685 -421
30 -21 86 -66 123 -98 38 -32 77 -58 87 -58 27 0 44 30 78 135 17 50 48 131
70 180 48 110 100 256 185 525 36 113 93 293 127 400 34 107 72 213 83 235 11
22 28 65 38 95 9 30 23 56 31 58 7 1 22 -12 32 -30 11 -18 42 -58 69 -88 147
-162 320 -455 586 -995 252 -510 451 -920 451 -930 0 -4 54 -118 119 -254 65
-135 142 -298 171 -363 65 -146 107 -198 158 -198 21 0 56 11 79 24 69 40 510
411 610 514 86 89 113 104 113 64 0 -9 11 -67 25 -127 63 -282 125 -859 128
-1195 3 -378 -34 -863 -85 -1100 -11 -52 -36 -140 -55 -195 -19 -55 -37 -119
-40 -142 -5 -40 -3 -44 23 -53 33 -13 137 2 224 32 77 26 227 69 415 118 114
30 193 45 275 51 63 4 135 15 159 24 45 15 70 12 38 -6 -26 -15 -141 -103
-232 -179 -44 -37 -127 -102 -185 -145 -58 -44 -141 -111 -185 -150 -44 -39
-121 -105 -170 -146 -50 -42 -190 -178 -311 -303 -189 -193 -226 -226 -250
-226 -40 1 -194 66 -312 134 -139 79 -238 117 -536 203 -320 93 -387 111 -596
157 -305 67 -400 85 -613 116 -117 17 -218 33 -226 35 -8 3 -143 17 -300 31
-255 23 -338 26 -756 27 -784 2 -928 -20 -1690 -259 -303 -95 -472 -153 -633
-220 -48 -20 -208 -80 -357 -134 -274 -100 -604 -237 -840 -350 -71 -34 -204
-93 -295 -130 -231 -96 -219 -90 -785 -372 -464 -231 -750 -389 -1015 -558
-88 -56 -178 -102 -255 -131 -75 -28 -95 -56 -95 -133 0 -33 7 -99 14 -146 17
-102 13 -115 -57 -190 -51 -55 -126 -144 -221 -263 l-49 -62 7 44 c4 24 13
134 22 245 8 110 22 248 31 306 26 174 28 226 9 255 -11 17 -26 25 -44 25 -31
0 -50 -16 -85 -70 -29 -44 -38 -48 -238 -109 -187 -56 -300 -82 -312 -71 -5 4
12 66 37 137 45 130 73 193 228 513 102 211 112 238 106 302 -9 92 -60 112
-220 84 -51 -8 -154 -20 -228 -26 -74 -5 -180 -15 -235 -20 -112 -12 -385 -12
-403 -1 -15 9 65 146 200 340 195 281 243 347 348 486 106 139 450 622 490
687 26 42 26 92 0 118 -57 57 -286 207 -685 448 -77 47 -165 102 -196 123 -30
20 -147 88 -260 150 -112 62 -256 145 -319 185 -63 40 -128 81 -145 91 -64 39
-66 38 380 177 116 35 246 74 290 86 44 11 150 43 235 70 85 26 252 78 370
114 336 102 639 205 847 287 72 29 104 47 109 61 12 40 -62 164 -296 493 -309
436 -387 545 -498 705 -67 96 -165 234 -218 305 -121 164 -229 324 -223 329
13 13 403 5 1184 -24 154 -6 426 -15 605 -20 179 -6 404 -17 500 -25 477 -40
1351 -62 1462 -37 77 18 118 56 118 109 0 67 -51 318 -109 543 -17 63 -44 180
-60 260 -17 80 -60 264 -96 410 -82 329 -112 465 -121 554 l-7 68 32 -7 c18
-4 119 -40 225 -80z m6890 -8612 c-4 -252 -11 -328 -46 -498 -23 -114 -32
-186 -35 -300 l-5 -150 71 -136 c39 -75 71 -143 71 -152 0 -8 9 -26 20 -40
l21 -26 -21 -81 c-68 -266 -223 -534 -399 -688 -67 -60 -280 -217 -384 -285
-32 -21 -126 -74 -210 -118 -84 -45 -180 -97 -214 -116 -56 -31 -269 -127
-384 -173 -80 -33 -231 -42 -594 -39 -187 2 -429 2 -538 0 -204 -3 -239 2
-198 31 12 9 48 73 80 144 62 136 83 215 140 519 30 155 39 224 61 465 6 63
20 169 31 236 11 73 20 181 22 275 l2 154 -53 3 c-73 4 -452 -33 -587 -58
-210 -38 -451 -91 -527 -116 -67 -22 -78 -29 -87 -56 -21 -60 -4 -270 35 -421
17 -66 103 -344 160 -517 62 -185 293 -621 345 -648 17 -9 48 -11 109 -6 47 3
82 3 78 -1 -11 -11 -161 -25 -388 -34 -413 -18 -867 -59 -1375 -125 -104 -14
-257 -32 -340 -41 -82 -9 -188 -25 -235 -35 -147 -32 -193 -34 -350 -10 -206
30 -438 77 -559 111 -105 31 -325 114 -621 234 -209 86 -414 155 -458 155 -18
0 -64 -13 -100 -29 -98 -43 -261 -71 -413 -71 -107 0 -145 5 -241 29 -128 32
-180 56 -319 146 -215 139 -408 391 -498 649 -88 249 -77 581 25 793 62 130
221 289 339 338 80 33 227 65 300 65 93 0 222 -33 389 -99 176 -69 179 -69
244 -27 45 29 66 35 125 40 40 3 637 8 1327 10 1286 5 1396 7 1970 51 107 8
251 18 320 21 69 3 141 10 161 15 20 5 79 39 130 75 206 146 316 203 407 211
102 9 303 -31 519 -103 297 -100 429 -106 642 -30 294 105 633 215 1151 375
381 117 756 233 795 246 22 7 52 13 66 14 l25 1 -2 -177z m147 135 c23 -24 59
-79 81 -126 74 -156 101 -298 101 -527 0 -134 -4 -179 -26 -277 -41 -188 -92
-338 -138 -407 -51 -77 -62 -84 -53 -34 11 57 8 74 -20 97 -14 12 -46 60 -71
109 -49 95 -54 128 -35 228 6 30 17 117 26 193 8 77 18 145 22 150 5 9 22 432
24 599 0 32 3 37 24 37 14 0 39 -16 65 -42z m-2726 -1208 c3 -5 1 -10 -4 -10
-6 0 -11 5 -11 10 0 6 2 10 4 10 3 0 8 -4 11 -10z m-80 -32 c26 -12 36 -34 10
-24 -10 4 -14 -1 -12 -17 1 -17 -4 -23 -23 -25 -14 -2 -28 -9 -32 -16 -5 -7
-8 -5 -8 7 0 10 -7 20 -15 23 -20 8 -19 41 3 53 23 14 46 13 77 -1z m-239 -61
c17 -2 134 -219 134 -249 0 -18 -38 37 -45 65 -4 15 -12 30 -18 34 -6 3 -7 1
-3 -5 4 -7 2 -12 -4 -12 -7 0 -10 -7 -6 -17 6 -17 5 -17 -8 0 -21 26 -32 2
-32 -65 1 -32 -3 -58 -7 -58 -5 0 -7 -6 -4 -12 5 -16 -21 -37 -45 -38 -20 0
-24 -15 -8 -25 19 -12 10 -33 -17 -40 -16 -4 -86 -9 -157 -11 -71 -2 -131 -6
-134 -9 -3 -2 -5 -18 -4 -35 1 -25 -4 -31 -30 -38 -17 -4 -36 -17 -42 -27 -13
-24 -33 -38 -66 -46 -24 -6 -24 -7 4 -8 28 -1 28 -2 22 -41 -4 -25 -2 -40 4
-40 5 0 10 -20 10 -45 0 -25 -4 -45 -10 -45 -5 0 -10 11 -10 23 0 13 -9 32
-20 42 -11 10 -20 26 -20 37 0 10 -4 18 -8 18 -13 0 -36 53 -33 78 1 12 -2 22
-8 22 -22 0 -11 30 12 31 l22 0 -22 11 c-14 7 -23 20 -23 34 0 13 -5 26 -11
29 -6 4 -8 14 -5 22 3 8 1 11 -4 8 -6 -4 -10 9 -10 29 0 25 -4 36 -15 36 -8 0
-15 5 -15 10 0 6 5 10 10 10 17 0 11 20 -7 27 -26 10 -33 24 -20 44 9 15 7 22
-11 39 -17 16 -22 17 -22 6 0 -8 -4 -17 -9 -21 -13 -7 -12 77 1 92 6 7 15 10
20 7 6 -4 13 -2 17 4 6 10 46 20 108 26 13 1 26 6 30 9 10 11 93 8 93 -3 0 -5
-8 -10 -17 -10 -13 0 -11 -5 10 -18 15 -9 27 -20 27 -24 0 -5 11 -8 25 -8 14
0 25 -4 25 -9 0 -5 30 -11 68 -14 37 -2 77 -7 90 -12 20 -7 22 -4 22 28 0 20
5 39 11 43 6 3 9 18 6 33 -7 35 6 56 28 47 14 -5 16 -4 7 7 -10 11 -5 14 23
15 20 1 43 10 56 23 15 15 23 18 29 9 4 -6 11 -12 16 -13z m-279 -113 c-3 -3
-12 -4 -19 -1 -8 3 -5 6 6 6 11 1 17 -2 13 -5z m457 -93 c-12 -12 -24 19 -18
45 l8 29 7 -35 c4 -19 5 -37 3 -39z m-894 38 c0 -11 -4 -17 -10 -14 -5 3 -10
13 -10 21 0 8 5 14 10 14 6 0 10 -9 10 -21z m863 -119 c3 -11 1 -18 -4 -14 -5
3 -9 12 -9 20 0 20 7 17 13 -6z m-149 -91 c-3 -5 -10 -7 -15 -3 -5 3 -7 10 -3
15 3 5 10 7 15 3 5 -3 7 -10 3 -15z m-286 -106 c5 -17 -26 -29 -40 -15 -6 6
-7 15 -3 22 9 14 37 9 43 -7z m26 -44 c-3 -5 -9 -7 -14 -4 -4 3 -10 -2 -14
-10 -8 -21 -33 -19 -46 5 -10 18 -8 20 25 20 29 0 35 4 36 23 l0 22 10 -23 c5
-13 6 -28 3 -33z m-149 -69 c-3 -5 -11 -10 -16 -10 -6 0 -7 5 -4 10 3 6 11 10
16 10 6 0 7 -4 4 -10z m302 -357 c-3 -10 -5 -4 -5 12 0 17 2 24 5 18 2 -7 2
-21 0 -30z m70 -35 c-3 -8 -6 -5 -6 6 -1 11 2 17 5 13 3 -3 4 -12 1 -19z m-47
-80 c0 -18 17 -6 29 19 11 25 13 25 29 9 15 -15 15 -18 2 -26 -12 -7 -12 -12
-2 -22 14 -14 17 -68 3 -68 -5 0 -14 7 -21 15 -15 19 -30 19 -30 2 0 -8 20
-18 46 -24 l46 -11 -7 43 c-4 29 -2 46 6 51 8 5 10 -1 7 -20 -4 -17 0 -33 10
-43 33 -33 11 -291 -27 -320 -9 -7 -11 -13 -6 -13 6 0 -3 -7 -20 -16 -56 -29
-179 1 -237 58 -23 21 -28 35 -28 72 0 37 -3 46 -17 47 -14 0 -13 2 5 9 12 5
22 17 22 25 0 9 4 14 9 10 5 -3 12 4 16 15 7 21 25 28 25 9 0 -5 5 -7 12 -3 8
5 2 12 -17 20 l-30 13 32 7 c50 10 66 34 62 93 -3 43 -1 51 13 51 10 0 23 9
30 20 12 19 14 19 26 3 6 -9 12 -20 12 -25z m155 -445 c-19 -46 -25 -52 -25
-27 0 18 26 64 36 64 2 0 -3 -17 -11 -37z m-72 -100 c-7 -2 -19 -2 -25 0 -7 3
-2 5 12 5 14 0 19 -2 13 -5z m-65 -10 c-10 -2 -26 -2 -35 0 -10 3 -2 5 17 5
19 0 27 -2 18 -5z m2082 -3645 c0 -51 -5 -47 -13 10 -3 24 -1 40 4 36 5 -3 9
-24 9 -46z"/>
<path d="M10435 14513 c5 -10 14 -45 22 -78 7 -33 31 -114 53 -180 151 -450
172 -507 235 -630 37 -71 62 -131 56 -133 -14 -5 -74 51 -133 126 -42 52 -72
76 -177 138 -298 179 -751 372 -1051 450 -244 63 -646 120 -590 84 8 -5 31
-10 50 -10 19 0 105 -16 190 -35 85 -20 197 -45 249 -56 225 -49 661 -226 901
-365 134 -78 304 -185 332 -210 13 -11 57 -44 99 -73 45 -30 97 -78 128 -116
48 -59 81 -81 81 -55 0 6 -13 36 -29 68 -15 31 -31 75 -33 97 -3 22 -26 83
-51 135 -25 52 -55 129 -68 170 -12 41 -49 147 -82 235 -91 248 -117 326 -117
358 0 17 -11 45 -26 64 -27 35 -51 45 -39 16z"/>
<path d="M10626 14358 c49 -51 119 -127 154 -168 36 -41 88 -100 116 -130 76
-81 92 -101 320 -395 115 -148 237 -311 269 -362 33 -51 66 -92 73 -92 15 -1
51 -40 51 -56 0 -5 -4 -2 -10 8 -5 9 -14 17 -20 17 -10 0 39 -92 53 -98 4 -2
4 -10 1 -18 -4 -12 0 -14 19 -9 23 6 25 4 24 -23 -1 -29 -16 -35 -16 -6 0 8
-5 14 -10 14 -6 0 -3 -16 6 -37 77 -181 120 -318 130 -418 4 -36 10 -65 14
-65 13 0 22 116 15 183 -8 63 -35 165 -62 227 -66 152 -160 325 -215 395 -35
44 -88 114 -118 155 -208 285 -344 452 -469 578 -75 75 -181 186 -236 245 -89
97 -147 147 -171 147 -5 0 32 -42 82 -92z m1009 -1248 c3 -5 1 -10 -4 -10 -6
0 -11 5 -11 10 0 6 2 10 4 10 3 0 8 -4 11 -10z m62 -100 c-3 -11 1 -21 9 -24
16 -6 19 -42 4 -51 -5 -3 -10 3 -10 14 0 11 -4 22 -8 25 -5 3 -9 19 -10 36 0
18 3 28 10 24 5 -3 8 -14 5 -24z m38 -89 c3 -5 1 -12 -5 -16 -5 -3 -10 1 -10
9 0 18 6 21 15 7z"/>
<path d="M14306 14008 c-18 -82 -25 -132 -31 -198 -5 -53 -29 -141 -80 -300
-74 -226 -117 -393 -180 -700 -19 -91 -41 -187 -49 -215 -28 -92 -4 -66 46 50
64 147 131 383 178 630 12 61 33 148 47 194 14 47 29 116 34 154 15 119 24
108 67 -81 25 -110 34 -179 44 -347 27 -440 6 -778 -57 -952 -13 -37 -22 -69
-20 -72 19 -18 87 117 114 224 29 119 39 403 21 600 -5 55 -14 168 -20 250
-14 186 -51 372 -86 433 -28 48 -29 58 -8 280 5 50 3 72 -4 72 -7 0 -14 -10
-16 -22z m-147 -773 c-5 -33 -13 -80 -19 -105 -6 -25 -13 -64 -17 -88 -3 -23
-10 -45 -14 -48 -5 -3 -9 -14 -9 -25 0 -10 -4 -19 -10 -19 -5 0 -9 -10 -8 -22
2 -50 -2 -69 -14 -62 -8 5 -9 0 -6 -14 5 -17 2 -22 -14 -22 -15 0 -18 4 -13
18 9 23 36 123 39 142 1 8 6 24 12 35 6 11 14 45 18 75 10 81 50 211 61 198 1
-1 -1 -30 -6 -63z m-109 -429 c0 -8 -4 -18 -10 -21 -5 -3 -10 3 -10 14 0 12 5
21 10 21 6 0 10 -6 10 -14z"/>
<path d="M6780 8246 c-76 -20 -143 -70 -123 -90 13 -13 46 -5 89 20 45 26 45
27 212 21 133 -4 198 -11 317 -36 164 -34 305 -50 305 -34 0 11 -39 47 -71 63
-24 13 -193 60 -212 59 -7 0 22 -11 62 -23 41 -13 77 -28 79 -34 2 -7 8 -9 13
-6 16 9 61 -5 53 -17 -4 -8 -10 -7 -17 0 -14 14 -27 14 -27 1 0 -5 6 -10 14
-10 8 0 18 -5 21 -11 9 -13 -50 -5 -205 29 -63 13 -152 29 -198 35 -56 8 -81
15 -78 23 9 25 -154 32 -234 10z"/>
<path d="M7258 8253 c7 -3 16 -2 19 1 4 3 -2 6 -13 5 -11 0 -14 -3 -6 -6z"/>
<path d="M7051 8246 c2 -2 27 -6 54 -10 36 -5 46 -4 35 3 -13 10 -99 16 -89 7z"/>
<path d="M12275 7860 c-3 -5 -1 -10 4 -10 6 0 11 5 11 10 0 6 -2 10 -4 10 -3
0 -8 -4 -11 -10z"/>
<path d="M12140 7744 c0 -11 7 -28 15 -38 14 -19 15 -19 15 6 0 14 -7 31 -15
38 -12 10 -15 9 -15 -6z"/>
<path d="M12125 7690 c-3 -5 1 -10 9 -10 9 0 16 5 16 10 0 6 -4 10 -9 10 -6 0
-13 -4 -16 -10z"/>
<path d="M12048 7623 c6 -2 18 -2 25 0 6 3 1 5 -13 5 -14 0 -19 -2 -12 -5z"/>
<path d="M12030 7585 c0 -8 4 -15 9 -15 5 0 11 7 15 15 3 9 0 15 -9 15 -8 0
-15 -7 -15 -15z"/>
<path d="M12485 6910 c-3 -5 -1 -10 4 -10 6 0 11 5 11 10 0 6 -2 10 -4 10 -3
0 -8 -4 -11 -10z"/>
<path d="M7604 17775 c0 -77 2 -107 3 -67 2 40 2 103 0 140 -2 37 -3 4 -3 -73z"/>
<path d="M7612 17575 c0 -16 2 -22 5 -12 2 9 2 23 0 30 -3 6 -5 -1 -5 -18z"/>
<path d="M7622 17515 c0 -16 2 -22 5 -12 2 9 2 23 0 30 -3 6 -5 -1 -5 -18z"/>
<path d="M7631 17470 c-1 -18 46 -209 82 -330 30 -104 62 -292 53 -316 -6 -16
-39 -17 -564 -8 -306 5 -768 9 -1027 9 -335 1 -510 5 -610 15 -190 19 -849 21
-955 2 -210 -38 -310 -76 -381 -144 -43 -42 -83 -115 -93 -168 -4 -22 3 -12
18 29 55 143 147 206 364 251 204 41 640 50 992 19 185 -16 2260 -42 2274 -28
15 15 -32 248 -97 479 -19 69 -39 143 -45 165 -5 22 -10 33 -11 25z"/>
<path d="M4122 16470 c0 -14 2 -19 5 -12 2 6 2 18 0 25 -3 6 -5 1 -5 -13z"/>
<path d="M4112 16415 c0 -16 2 -22 5 -12 2 9 2 23 0 30 -3 6 -5 -1 -5 -18z"/>
<path d="M4103 16120 c0 -25 2 -35 4 -22 2 12 2 32 0 45 -2 12 -4 2 -4 -23z"/>
<path d="M4112 15990 c0 -19 2 -27 5 -17 2 9 2 25 0 35 -3 9 -5 1 -5 -18z"/>
<path d="M4122 15925 c0 -16 2 -22 5 -12 2 9 2 23 0 30 -3 6 -5 -1 -5 -18z"/>
<path d="M4131 15880 c-1 -27 49 -191 78 -255 43 -94 130 -229 248 -383 173
-226 260 -343 316 -424 17 -26 36 -48 40 -48 12 0 -7 30 -84 131 -39 52 -110
146 -157 209 -47 63 -112 148 -144 187 -33 40 -94 130 -136 200 -73 120 -94
171 -143 338 -10 33 -18 53 -18 45z"/>
<path d="M16305 14900 c13 -140 43 -365 44 -332 1 42 -38 395 -46 402 -3 3 -2
-29 2 -70z"/>
<path d="M4818 14686 c-31 -23 -314 -122 -888 -311 -695 -228 -787 -270 -844
-384 -25 -48 -57 -173 -55 -213 1 -13 10 17 20 66 34 162 71 210 215 282 70
35 921 324 1194 406 45 14 313 112 362 132 20 9 39 20 43 26 9 14 -27 12 -47
-4z"/>
<path d="M16353 14485 c0 -27 3 -81 7 -120 l7 -70 0 65 c1 36 -2 90 -7 120
l-7 55 0 -50z"/>
<path d="M16373 14225 c0 -33 2 -45 4 -27 2 18 2 45 0 60 -2 15 -4 0 -4 -33z"/>
<path d="M16383 14040 c0 -25 2 -35 4 -22 2 12 2 32 0 45 -2 12 -4 2 -4 -23z"/>
<path d="M16373 13720 c0 -47 2 -66 4 -42 2 23 2 61 0 85 -2 23 -4 4 -4 -43z"/>
<path d="M3023 13695 c0 -27 2 -38 4 -22 2 15 2 37 0 50 -2 12 -4 0 -4 -28z"/>
<path d="M16364 13520 c0 -52 1 -74 3 -47 2 26 2 68 0 95 -2 26 -3 4 -3 -48z"/>
<path d="M3023 13470 c0 -36 2 -50 4 -32 2 17 2 47 0 65 -2 17 -4 3 -4 -33z"/>
<path d="M16370 13354 c0 -9 54 -11 203 -7 281 8 455 -15 621 -83 125 -51 175
-107 201 -226 9 -42 14 -53 14 -32 1 46 -26 126 -57 170 -49 67 -194 129 -397
169 -102 20 -585 27 -585 9z"/>
<path d="M3035 13279 c7 -84 27 -142 70 -201 45 -62 95 -97 279 -198 263 -145
559 -330 846 -532 77 -54 84 -75 43 -134 -15 -22 -65 -94 -111 -160 -170 -244
-387 -589 -424 -674 -57 -128 -109 -327 -107 -404 1 -17 7 9 15 59 20 130 68
276 128 390 60 113 254 417 409 640 114 164 141 210 134 229 -15 39 -699 475
-987 629 -58 31 -127 73 -154 94 -68 52 -115 140 -132 246 l-14 82 5 -66z"/>
<path d="M17412 12930 c0 -19 2 -27 5 -17 2 9 2 25 0 35 -3 9 -5 1 -5 -18z"/>
<path d="M17424 12740 c0 -58 1 -81 3 -52 2 28 2 76 0 105 -2 28 -3 5 -3 -53z"/>
<path d="M17412 12580 c0 -19 2 -27 5 -17 2 9 2 25 0 35 -3 9 -5 1 -5 -18z"/>
<path d="M17401 12520 c0 -14 -12 -67 -26 -118 -28 -103 -57 -153 -137 -231
-53 -52 -83 -76 -228 -183 -273 -200 -361 -268 -490 -380 -193 -167 -329 -309
-363 -378 -41 -86 -57 -205 -55 -414 l2 -181 6 195 c11 321 41 410 190 560
168 168 411 366 771 627 131 95 245 207 278 270 24 49 64 207 58 236 -4 21 -4
20 -6 -3z"/>
<path d="M3633 10765 c0 -22 2 -30 4 -17 2 12 2 30 0 40 -3 9 -5 -1 -4 -23z"/>
<path d="M3642 10690 c0 -19 2 -27 5 -17 2 9 2 25 0 35 -3 9 -5 1 -5 -18z"/>
<path d="M3652 10625 c0 -16 2 -22 5 -12 2 9 2 23 0 30 -3 6 -5 -1 -5 -18z"/>
<path d="M16113 10525 c-1 -44 2 -118 6 -165 8 -83 8 -83 8 -20 0 36 -3 110
-7 165 l-7 100 0 -80z"/>
<path d="M3661 10576 c-1 -29 29 -136 49 -175 28 -54 67 -91 124 -117 65 -30
236 -71 345 -83 50 -5 87 -15 93 -23 5 -7 6 -44 4 -83 -4 -59 -3 -63 4 -25 5
25 9 66 9 93 l1 47 -36 0 c-45 0 -247 34 -327 55 -67 17 -132 48 -165 79 -35
31 -53 70 -78 166 -13 47 -23 77 -23 66z"/>
<path d="M16132 10220 c0 -19 2 -27 5 -17 2 9 2 25 0 35 -3 9 -5 1 -5 -18z"/>
<path d="M16141 10159 c-3 -59 46 -246 124 -478 93 -275 118 -369 145 -551 10
-69 18 -111 19 -95 1 58 -28 245 -55 347 -15 57 -62 202 -104 324 -66 185
-100 312 -123 454 l-4 25 -2 -26z"/>
<path d="M4263 9970 c0 -30 2 -43 4 -27 2 15 2 39 0 55 -2 15 -4 2 -4 -28z"/>
<path d="M4263 9610 c0 -25 2 -35 4 -22 2 12 2 32 0 45 -2 12 -4 2 -4 -23z"/>
<path d="M4271 9551 c-2 -37 43 -192 69 -238 50 -88 121 -118 345 -148 66 -8
153 -23 193 -31 l72 -16 0 -147 c0 -179 12 -256 52 -343 44 -97 113 -160 204
-186 91 -27 234 -49 365 -57 58 -4 111 -10 117 -14 8 -5 12 -63 15 -176 l3
-170 2 177 c1 97 -2 179 -7 182 -5 3 -87 13 -182 21 -244 22 -366 53 -427 109
-33 30 -86 121 -108 186 -16 46 -19 86 -19 243 0 180 -1 188 -20 192 -11 2
-51 11 -90 19 -38 8 -101 17 -140 21 -220 20 -313 56 -364 139 -12 18 -34 83
-50 142 -16 60 -30 103 -30 95z"/>
<path d="M16434 8810 c0 -102 2 -143 3 -92 2 50 2 134 0 185 -1 50 -3 9 -3
-93z"/>
<path d="M16422 8523 c-8 -272 -124 -668 -298 -1014 -30 -61 -75 -163 -100
-227 -111 -287 -245 -485 -482 -713 -76 -73 -138 -140 -146 -160 -8 -19 -26
-154 -41 -304 -50 -512 -129 -805 -256 -952 -35 -40 -68 -90 -80 -123 -24 -65
-122 -447 -117 -461 2 -5 23 70 47 168 74 296 83 322 148 394 150 169 241 517
282 1081 7 86 18 164 27 187 10 26 51 72 124 140 240 224 405 465 512 750 21
57 64 154 94 215 64 127 148 329 192 462 61 179 110 462 100 574 -4 40 -5 38
-6 -17z"/>
<path d="M5712 7630 c0 -19 3 -57 8 -85 6 -40 7 -43 8 -15 0 19 -3 58 -8 85
-6 40 -7 43 -8 15z"/>
<path d="M5732 7450 c0 -19 2 -27 5 -17 2 9 2 25 0 35 -3 9 -5 1 -5 -18z"/>
<path d="M5741 7394 c-1 -12 6 -61 14 -110 44 -257 185 -542 394 -801 100
-124 158 -177 276 -256 196 -129 398 -207 703 -271 189 -40 262 -46 614 -55
183 -5 341 -12 351 -16 9 -4 17 -3 17 3 0 16 -47 22 -250 27 -527 14 -503 12
-709 54 -235 48 -407 104 -563 181 -202 101 -309 187 -446 360 -199 250 -330
526 -380 800 -11 58 -20 95 -21 84z"/>
<path d="M8101 5826 c-1 -38 22 -216 26 -196 2 8 -3 62 -11 120 -7 58 -14 92
-15 76z"/>
<path d="M8132 5580 c0 -19 2 -27 5 -17 2 9 2 25 0 35 -3 9 -5 1 -5 -18z"/>
<path d="M8142 5505 c0 -16 2 -22 5 -12 2 9 2 23 0 30 -3 6 -5 -1 -5 -18z"/>
<path d="M8150 5449 c0 -37 37 -255 60 -353 29 -127 58 -188 149 -324 99 -145
137 -236 191 -448 66 -260 99 -380 100 -360 0 10 -21 98 -46 195 -108 416
-119 444 -226 602 -73 106 -98 152 -128 231 -23 63 -64 257 -81 383 -11 90
-19 120 -19 74z"/>
<path d="M14892 4525 c0 -16 2 -22 5 -12 2 9 2 23 0 30 -3 6 -5 -1 -5 -18z"/>
<path d="M14885 4380 c2 -84 10 -132 39 -235 51 -181 169 -555 174 -550 3 2
-14 62 -36 132 -125 391 -164 541 -173 658 l-7 100 3 -105z"/>
<path d="M8653 3905 c0 -22 2 -30 4 -17 2 12 2 30 0 40 -3 9 -5 -1 -4 -23z"/>
<path d="M8652 3805 c-3 -48 -47 -218 -98 -375 -57 -179 -104 -348 -103 -375
0 -11 11 23 25 75 14 52 50 174 80 270 74 236 106 362 101 402 -4 33 -4 33 -5
3z"/>
<path d="M15101 3564 c0 -11 3 -14 6 -6 3 7 2 16 -1 19 -3 4 -6 -2 -5 -13z"/>
<path d="M15112 3530 c0 -8 6 -31 13 -50 7 -19 13 -28 13 -20 0 8 -6 31 -13
50 -7 19 -13 28 -13 20z"/>
<path d="M15147 3410 c3 -19 12 -53 19 -75 13 -38 13 -38 7 -5 -3 19 -12 53
-19 75 -13 38 -13 38 -7 5z"/>
<path d="M15182 3270 c0 -14 2 -19 5 -12 2 6 2 18 0 25 -3 6 -5 1 -5 -13z"/>
<path d="M15192 3225 c-1 -11 3 -38 7 -60 7 -34 9 -35 9 -10 0 35 -15 101 -16
70z"/>
<path d="M15212 3095 c0 -16 2 -22 5 -12 2 9 2 23 0 30 -3 6 -5 -1 -5 -18z"/>
<path d="M8442 3005 c0 -16 2 -22 5 -12 2 9 2 23 0 30 -3 6 -5 -1 -5 -18z"/>
<path d="M15222 2990 c0 -19 2 -27 5 -17 2 9 2 25 0 35 -3 9 -5 1 -5 -18z"/>
<path d="M8432 2940 c0 -19 2 -27 5 -17 2 9 2 25 0 35 -3 9 -5 1 -5 -18z"/>
<path d="M15234 2800 c0 -74 1 -105 3 -67 2 37 2 97 0 135 -2 37 -3 6 -3 -68z"/>
<path d="M8422 2860 c0 -19 2 -27 5 -17 2 9 2 25 0 35 -3 9 -5 1 -5 -18z"/>
<path d="M8412 2720 c0 -14 2 -19 5 -12 2 6 2 18 0 25 -3 6 -5 1 -5 -13z"/>
<path d="M15218 2605 c-4 -33 -17 -91 -28 -128 -29 -93 -113 -182 -275 -289
-228 -151 -352 -196 -615 -222 l-145 -15 110 5 c220 9 365 47 519 135 236 136
366 249 405 354 27 71 44 155 39 193 -2 16 -6 2 -10 -33z"/>
<path d="M8431 2340 c0 -8 4 -24 9 -35 5 -13 9 -14 9 -5 0 8 -4 24 -9 35 -5
13 -9 14 -9 5z"/>
<path d="M8489 2184 c11 -22 27 -47 36 -54 16 -13 8 1 -43 76 -7 11 -3 1 7
-22z"/>
<path d="M10015 2188 c-16 -6 -69 -38 -118 -72 -172 -120 -246 -149 -432 -167
-79 -8 -79 -8 20 -4 165 7 252 38 380 135 91 69 157 100 220 101 40 1 45 3 25
9 -34 11 -60 10 -95 -2z"/>
<path d="M12360 2055 c80 -7 199 -23 265 -35 261 -46 353 -60 430 -64 l80 -5
-70 9 c-97 12 -247 37 -395 65 -140 26 -315 46 -399 44 -32 -1 7 -7 89 -14z"/>
<path d="M8650 2030 c8 -5 20 -10 25 -10 6 0 3 5 -5 10 -8 5 -19 10 -25 10 -5
0 -3 -5 5 -10z"/>
<path d="M8700 2010 c8 -5 22 -9 30 -9 10 0 8 3 -5 9 -27 12 -43 12 -25 0z"/>
<path d="M8775 1990 c17 -4 39 -8 50 -8 16 0 15 2 -5 8 -14 4 -36 8 -50 8 -22
0 -22 -1 5 -8z"/>
<path d="M8863 1973 c9 -2 23 -2 30 0 6 3 -1 5 -18 5 -16 0 -22 -2 -12 -5z"/>
<path d="M8933 1963 c9 -2 25 -2 35 0 9 3 1 5 -18 5 -19 0 -27 -2 -17 -5z"/>
<path d="M9045 1950 c33 -4 83 -8 110 -7 47 0 47 0 -15 7 -36 4 -85 8 -110 7
-41 0 -39 -1 15 -7z"/>
<path d="M13368 1937 c127 -4 348 -4 490 1 243 8 231 8 -233 8 -444 -1 -468
-1 -257 -9z"/>
<path d="M10788 1873 c7 -3 16 -2 19 1 4 3 -2 6 -13 5 -11 0 -14 -3 -6 -6z"/>
<path d="M10858 1853 c7 -3 16 -2 19 1 4 3 -2 6 -13 5 -11 0 -14 -3 -6 -6z"/>
<path d="M10908 1843 c7 -3 16 -2 19 1 4 3 -2 6 -13 5 -11 0 -14 -3 -6 -6z"/>
<path d="M11170 1840 l-185 -6 175 -1 c96 0 202 3 235 7 60 7 60 7 10 6 -27 0
-133 -3 -235 -6z"/>
</g>
</svg>
